M48
; DRILL file {KiCad 9.0.2} date 2025-05-16T17:45:06-0500
; FORMAT={-:-/ absolute / metric / decimal}
; #@! TF.CreationDate,2025-05-16T17:45:06-05:00
; #@! TF.GenerationSoftware,Kicad,Pcbnew,9.0.2
; #@! TF.FileFunction,Plated,1,2,PTH
FMAT,2
METRIC
; #@! TA.AperFunction,Plated,PTH,ComponentDrill
T1C0.800
; #@! TA.AperFunction,Plated,PTH,ComponentDrill
T2C1.000
; #@! TA.AperFunction,Plated,PTH,ComponentDrill
T3C1.500
%
G90
G05
T1
X130.5Y-59.69
X130.5Y-67.31
X130.5Y-79.0
X130.5Y-86.62
X130.5Y-98.0
X130.5Y-105.62
X149.5Y-59.69
X149.5Y-67.31
X149.5Y-79.0
X149.5Y-86.62
X149.5Y-98.0
X149.5Y-105.62
X168.5Y-59.5
X168.5Y-67.12
X168.5Y-79.0
X168.5Y-86.62
X168.5Y-98.0
X168.5Y-105.62
T2
X180.11Y-60.407
X180.11Y-62.947
X180.11Y-65.487
X180.11Y-68.028
X180.11Y-70.567
X180.11Y-73.108
X180.11Y-75.647
X180.11Y-78.188
X180.11Y-80.727
X180.11Y-83.267
X180.11Y-85.807
X180.11Y-88.347
X180.11Y-90.888
X180.11Y-93.427
X180.11Y-95.968
X180.11Y-98.507
X180.11Y-101.047
X180.11Y-103.587
X180.11Y-106.127
X180.11Y-108.667
X197.89Y-60.407
X197.89Y-62.947
X197.89Y-65.487
X197.89Y-68.028
X197.89Y-70.567
X197.89Y-73.108
X197.89Y-75.647
X197.89Y-78.188
X197.89Y-80.727
X197.89Y-83.267
X197.89Y-85.807
X197.89Y-88.347
X197.89Y-90.888
X197.89Y-93.427
X197.89Y-95.968
X197.89Y-98.507
X197.89Y-101.047
X197.89Y-103.587
X197.89Y-106.127
X197.89Y-108.667
T3
X118.11Y-81.46
X118.11Y-100.46
X118.19Y-62.46
X124.46Y-78.92
X124.46Y-97.92
X124.54Y-59.92
X137.11Y-62.46
X137.11Y-81.46
X137.11Y-100.46
X143.46Y-59.92
X143.46Y-78.92
X143.46Y-97.92
X156.11Y-81.46
X156.11Y-100.46
X156.15Y-62.36
X162.46Y-78.92
X162.46Y-97.92
X162.5Y-59.82
M30
