%TF.GenerationSoftware,KiCad,Pcbnew,9.0.2*%
%TF.CreationDate,2025-05-16T17:45:02-05:00*%
%TF.ProjectId,main,6d61696e-2e6b-4696-9361-645f70636258,rev?*%
%TF.SameCoordinates,Original*%
%TF.FileFunction,Legend,Top*%
%TF.FilePolarity,Positive*%
%FSLAX46Y46*%
G04 Gerber Fmt 4.6, Leading zero omitted, Abs format (unit mm)*
G04 Created by KiCad (PCBNEW 9.0.2) date 2025-05-16 17:45:02*
%MOMM*%
%LPD*%
G01*
G04 APERTURE LIST*
%ADD10C,0.150000*%
%ADD11C,0.120000*%
G04 APERTURE END LIST*
D10*
X201036660Y-109471604D02*
X201512850Y-109471604D01*
X200941422Y-109757319D02*
X201274755Y-108757319D01*
X201274755Y-108757319D02*
X201608088Y-109757319D01*
X202465231Y-109757319D02*
X201893803Y-109757319D01*
X202179517Y-109757319D02*
X202179517Y-108757319D01*
X202179517Y-108757319D02*
X202084279Y-108900176D01*
X202084279Y-108900176D02*
X201989041Y-108995414D01*
X201989041Y-108995414D02*
X201893803Y-109043033D01*
X158586667Y-95407200D02*
X158729524Y-95454819D01*
X158729524Y-95454819D02*
X158967619Y-95454819D01*
X158967619Y-95454819D02*
X159062857Y-95407200D01*
X159062857Y-95407200D02*
X159110476Y-95359580D01*
X159110476Y-95359580D02*
X159158095Y-95264342D01*
X159158095Y-95264342D02*
X159158095Y-95169104D01*
X159158095Y-95169104D02*
X159110476Y-95073866D01*
X159110476Y-95073866D02*
X159062857Y-95026247D01*
X159062857Y-95026247D02*
X158967619Y-94978628D01*
X158967619Y-94978628D02*
X158777143Y-94931009D01*
X158777143Y-94931009D02*
X158681905Y-94883390D01*
X158681905Y-94883390D02*
X158634286Y-94835771D01*
X158634286Y-94835771D02*
X158586667Y-94740533D01*
X158586667Y-94740533D02*
X158586667Y-94645295D01*
X158586667Y-94645295D02*
X158634286Y-94550057D01*
X158634286Y-94550057D02*
X158681905Y-94502438D01*
X158681905Y-94502438D02*
X158777143Y-94454819D01*
X158777143Y-94454819D02*
X159015238Y-94454819D01*
X159015238Y-94454819D02*
X159158095Y-94502438D01*
X159491429Y-94454819D02*
X159729524Y-95454819D01*
X159729524Y-95454819D02*
X159920000Y-94740533D01*
X159920000Y-94740533D02*
X160110476Y-95454819D01*
X160110476Y-95454819D02*
X160348572Y-94454819D01*
X160777143Y-95454819D02*
X160967619Y-95454819D01*
X160967619Y-95454819D02*
X161062857Y-95407200D01*
X161062857Y-95407200D02*
X161110476Y-95359580D01*
X161110476Y-95359580D02*
X161205714Y-95216723D01*
X161205714Y-95216723D02*
X161253333Y-95026247D01*
X161253333Y-95026247D02*
X161253333Y-94645295D01*
X161253333Y-94645295D02*
X161205714Y-94550057D01*
X161205714Y-94550057D02*
X161158095Y-94502438D01*
X161158095Y-94502438D02*
X161062857Y-94454819D01*
X161062857Y-94454819D02*
X160872381Y-94454819D01*
X160872381Y-94454819D02*
X160777143Y-94502438D01*
X160777143Y-94502438D02*
X160729524Y-94550057D01*
X160729524Y-94550057D02*
X160681905Y-94645295D01*
X160681905Y-94645295D02*
X160681905Y-94883390D01*
X160681905Y-94883390D02*
X160729524Y-94978628D01*
X160729524Y-94978628D02*
X160777143Y-95026247D01*
X160777143Y-95026247D02*
X160872381Y-95073866D01*
X160872381Y-95073866D02*
X161062857Y-95073866D01*
X161062857Y-95073866D02*
X161158095Y-95026247D01*
X161158095Y-95026247D02*
X161205714Y-94978628D01*
X161205714Y-94978628D02*
X161253333Y-94883390D01*
X158586667Y-76407200D02*
X158729524Y-76454819D01*
X158729524Y-76454819D02*
X158967619Y-76454819D01*
X158967619Y-76454819D02*
X159062857Y-76407200D01*
X159062857Y-76407200D02*
X159110476Y-76359580D01*
X159110476Y-76359580D02*
X159158095Y-76264342D01*
X159158095Y-76264342D02*
X159158095Y-76169104D01*
X159158095Y-76169104D02*
X159110476Y-76073866D01*
X159110476Y-76073866D02*
X159062857Y-76026247D01*
X159062857Y-76026247D02*
X158967619Y-75978628D01*
X158967619Y-75978628D02*
X158777143Y-75931009D01*
X158777143Y-75931009D02*
X158681905Y-75883390D01*
X158681905Y-75883390D02*
X158634286Y-75835771D01*
X158634286Y-75835771D02*
X158586667Y-75740533D01*
X158586667Y-75740533D02*
X158586667Y-75645295D01*
X158586667Y-75645295D02*
X158634286Y-75550057D01*
X158634286Y-75550057D02*
X158681905Y-75502438D01*
X158681905Y-75502438D02*
X158777143Y-75454819D01*
X158777143Y-75454819D02*
X159015238Y-75454819D01*
X159015238Y-75454819D02*
X159158095Y-75502438D01*
X159491429Y-75454819D02*
X159729524Y-76454819D01*
X159729524Y-76454819D02*
X159920000Y-75740533D01*
X159920000Y-75740533D02*
X160110476Y-76454819D01*
X160110476Y-76454819D02*
X160348572Y-75454819D01*
X160872381Y-75883390D02*
X160777143Y-75835771D01*
X160777143Y-75835771D02*
X160729524Y-75788152D01*
X160729524Y-75788152D02*
X160681905Y-75692914D01*
X160681905Y-75692914D02*
X160681905Y-75645295D01*
X160681905Y-75645295D02*
X160729524Y-75550057D01*
X160729524Y-75550057D02*
X160777143Y-75502438D01*
X160777143Y-75502438D02*
X160872381Y-75454819D01*
X160872381Y-75454819D02*
X161062857Y-75454819D01*
X161062857Y-75454819D02*
X161158095Y-75502438D01*
X161158095Y-75502438D02*
X161205714Y-75550057D01*
X161205714Y-75550057D02*
X161253333Y-75645295D01*
X161253333Y-75645295D02*
X161253333Y-75692914D01*
X161253333Y-75692914D02*
X161205714Y-75788152D01*
X161205714Y-75788152D02*
X161158095Y-75835771D01*
X161158095Y-75835771D02*
X161062857Y-75883390D01*
X161062857Y-75883390D02*
X160872381Y-75883390D01*
X160872381Y-75883390D02*
X160777143Y-75931009D01*
X160777143Y-75931009D02*
X160729524Y-75978628D01*
X160729524Y-75978628D02*
X160681905Y-76073866D01*
X160681905Y-76073866D02*
X160681905Y-76264342D01*
X160681905Y-76264342D02*
X160729524Y-76359580D01*
X160729524Y-76359580D02*
X160777143Y-76407200D01*
X160777143Y-76407200D02*
X160872381Y-76454819D01*
X160872381Y-76454819D02*
X161062857Y-76454819D01*
X161062857Y-76454819D02*
X161158095Y-76407200D01*
X161158095Y-76407200D02*
X161205714Y-76359580D01*
X161205714Y-76359580D02*
X161253333Y-76264342D01*
X161253333Y-76264342D02*
X161253333Y-76073866D01*
X161253333Y-76073866D02*
X161205714Y-75978628D01*
X161205714Y-75978628D02*
X161158095Y-75931009D01*
X161158095Y-75931009D02*
X161062857Y-75883390D01*
X158626667Y-57307200D02*
X158769524Y-57354819D01*
X158769524Y-57354819D02*
X159007619Y-57354819D01*
X159007619Y-57354819D02*
X159102857Y-57307200D01*
X159102857Y-57307200D02*
X159150476Y-57259580D01*
X159150476Y-57259580D02*
X159198095Y-57164342D01*
X159198095Y-57164342D02*
X159198095Y-57069104D01*
X159198095Y-57069104D02*
X159150476Y-56973866D01*
X159150476Y-56973866D02*
X159102857Y-56926247D01*
X159102857Y-56926247D02*
X159007619Y-56878628D01*
X159007619Y-56878628D02*
X158817143Y-56831009D01*
X158817143Y-56831009D02*
X158721905Y-56783390D01*
X158721905Y-56783390D02*
X158674286Y-56735771D01*
X158674286Y-56735771D02*
X158626667Y-56640533D01*
X158626667Y-56640533D02*
X158626667Y-56545295D01*
X158626667Y-56545295D02*
X158674286Y-56450057D01*
X158674286Y-56450057D02*
X158721905Y-56402438D01*
X158721905Y-56402438D02*
X158817143Y-56354819D01*
X158817143Y-56354819D02*
X159055238Y-56354819D01*
X159055238Y-56354819D02*
X159198095Y-56402438D01*
X159531429Y-56354819D02*
X159769524Y-57354819D01*
X159769524Y-57354819D02*
X159960000Y-56640533D01*
X159960000Y-56640533D02*
X160150476Y-57354819D01*
X160150476Y-57354819D02*
X160388572Y-56354819D01*
X160674286Y-56354819D02*
X161340952Y-56354819D01*
X161340952Y-56354819D02*
X160912381Y-57354819D01*
X139586667Y-95407200D02*
X139729524Y-95454819D01*
X139729524Y-95454819D02*
X139967619Y-95454819D01*
X139967619Y-95454819D02*
X140062857Y-95407200D01*
X140062857Y-95407200D02*
X140110476Y-95359580D01*
X140110476Y-95359580D02*
X140158095Y-95264342D01*
X140158095Y-95264342D02*
X140158095Y-95169104D01*
X140158095Y-95169104D02*
X140110476Y-95073866D01*
X140110476Y-95073866D02*
X140062857Y-95026247D01*
X140062857Y-95026247D02*
X139967619Y-94978628D01*
X139967619Y-94978628D02*
X139777143Y-94931009D01*
X139777143Y-94931009D02*
X139681905Y-94883390D01*
X139681905Y-94883390D02*
X139634286Y-94835771D01*
X139634286Y-94835771D02*
X139586667Y-94740533D01*
X139586667Y-94740533D02*
X139586667Y-94645295D01*
X139586667Y-94645295D02*
X139634286Y-94550057D01*
X139634286Y-94550057D02*
X139681905Y-94502438D01*
X139681905Y-94502438D02*
X139777143Y-94454819D01*
X139777143Y-94454819D02*
X140015238Y-94454819D01*
X140015238Y-94454819D02*
X140158095Y-94502438D01*
X140491429Y-94454819D02*
X140729524Y-95454819D01*
X140729524Y-95454819D02*
X140920000Y-94740533D01*
X140920000Y-94740533D02*
X141110476Y-95454819D01*
X141110476Y-95454819D02*
X141348572Y-94454819D01*
X142158095Y-94454819D02*
X141967619Y-94454819D01*
X141967619Y-94454819D02*
X141872381Y-94502438D01*
X141872381Y-94502438D02*
X141824762Y-94550057D01*
X141824762Y-94550057D02*
X141729524Y-94692914D01*
X141729524Y-94692914D02*
X141681905Y-94883390D01*
X141681905Y-94883390D02*
X141681905Y-95264342D01*
X141681905Y-95264342D02*
X141729524Y-95359580D01*
X141729524Y-95359580D02*
X141777143Y-95407200D01*
X141777143Y-95407200D02*
X141872381Y-95454819D01*
X141872381Y-95454819D02*
X142062857Y-95454819D01*
X142062857Y-95454819D02*
X142158095Y-95407200D01*
X142158095Y-95407200D02*
X142205714Y-95359580D01*
X142205714Y-95359580D02*
X142253333Y-95264342D01*
X142253333Y-95264342D02*
X142253333Y-95026247D01*
X142253333Y-95026247D02*
X142205714Y-94931009D01*
X142205714Y-94931009D02*
X142158095Y-94883390D01*
X142158095Y-94883390D02*
X142062857Y-94835771D01*
X142062857Y-94835771D02*
X141872381Y-94835771D01*
X141872381Y-94835771D02*
X141777143Y-94883390D01*
X141777143Y-94883390D02*
X141729524Y-94931009D01*
X141729524Y-94931009D02*
X141681905Y-95026247D01*
X139586667Y-76407200D02*
X139729524Y-76454819D01*
X139729524Y-76454819D02*
X139967619Y-76454819D01*
X139967619Y-76454819D02*
X140062857Y-76407200D01*
X140062857Y-76407200D02*
X140110476Y-76359580D01*
X140110476Y-76359580D02*
X140158095Y-76264342D01*
X140158095Y-76264342D02*
X140158095Y-76169104D01*
X140158095Y-76169104D02*
X140110476Y-76073866D01*
X140110476Y-76073866D02*
X140062857Y-76026247D01*
X140062857Y-76026247D02*
X139967619Y-75978628D01*
X139967619Y-75978628D02*
X139777143Y-75931009D01*
X139777143Y-75931009D02*
X139681905Y-75883390D01*
X139681905Y-75883390D02*
X139634286Y-75835771D01*
X139634286Y-75835771D02*
X139586667Y-75740533D01*
X139586667Y-75740533D02*
X139586667Y-75645295D01*
X139586667Y-75645295D02*
X139634286Y-75550057D01*
X139634286Y-75550057D02*
X139681905Y-75502438D01*
X139681905Y-75502438D02*
X139777143Y-75454819D01*
X139777143Y-75454819D02*
X140015238Y-75454819D01*
X140015238Y-75454819D02*
X140158095Y-75502438D01*
X140491429Y-75454819D02*
X140729524Y-76454819D01*
X140729524Y-76454819D02*
X140920000Y-75740533D01*
X140920000Y-75740533D02*
X141110476Y-76454819D01*
X141110476Y-76454819D02*
X141348572Y-75454819D01*
X142205714Y-75454819D02*
X141729524Y-75454819D01*
X141729524Y-75454819D02*
X141681905Y-75931009D01*
X141681905Y-75931009D02*
X141729524Y-75883390D01*
X141729524Y-75883390D02*
X141824762Y-75835771D01*
X141824762Y-75835771D02*
X142062857Y-75835771D01*
X142062857Y-75835771D02*
X142158095Y-75883390D01*
X142158095Y-75883390D02*
X142205714Y-75931009D01*
X142205714Y-75931009D02*
X142253333Y-76026247D01*
X142253333Y-76026247D02*
X142253333Y-76264342D01*
X142253333Y-76264342D02*
X142205714Y-76359580D01*
X142205714Y-76359580D02*
X142158095Y-76407200D01*
X142158095Y-76407200D02*
X142062857Y-76454819D01*
X142062857Y-76454819D02*
X141824762Y-76454819D01*
X141824762Y-76454819D02*
X141729524Y-76407200D01*
X141729524Y-76407200D02*
X141681905Y-76359580D01*
X139586667Y-57407200D02*
X139729524Y-57454819D01*
X139729524Y-57454819D02*
X139967619Y-57454819D01*
X139967619Y-57454819D02*
X140062857Y-57407200D01*
X140062857Y-57407200D02*
X140110476Y-57359580D01*
X140110476Y-57359580D02*
X140158095Y-57264342D01*
X140158095Y-57264342D02*
X140158095Y-57169104D01*
X140158095Y-57169104D02*
X140110476Y-57073866D01*
X140110476Y-57073866D02*
X140062857Y-57026247D01*
X140062857Y-57026247D02*
X139967619Y-56978628D01*
X139967619Y-56978628D02*
X139777143Y-56931009D01*
X139777143Y-56931009D02*
X139681905Y-56883390D01*
X139681905Y-56883390D02*
X139634286Y-56835771D01*
X139634286Y-56835771D02*
X139586667Y-56740533D01*
X139586667Y-56740533D02*
X139586667Y-56645295D01*
X139586667Y-56645295D02*
X139634286Y-56550057D01*
X139634286Y-56550057D02*
X139681905Y-56502438D01*
X139681905Y-56502438D02*
X139777143Y-56454819D01*
X139777143Y-56454819D02*
X140015238Y-56454819D01*
X140015238Y-56454819D02*
X140158095Y-56502438D01*
X140491429Y-56454819D02*
X140729524Y-57454819D01*
X140729524Y-57454819D02*
X140920000Y-56740533D01*
X140920000Y-56740533D02*
X141110476Y-57454819D01*
X141110476Y-57454819D02*
X141348572Y-56454819D01*
X142158095Y-56788152D02*
X142158095Y-57454819D01*
X141920000Y-56407200D02*
X141681905Y-57121485D01*
X141681905Y-57121485D02*
X142300952Y-57121485D01*
X120586667Y-95407200D02*
X120729524Y-95454819D01*
X120729524Y-95454819D02*
X120967619Y-95454819D01*
X120967619Y-95454819D02*
X121062857Y-95407200D01*
X121062857Y-95407200D02*
X121110476Y-95359580D01*
X121110476Y-95359580D02*
X121158095Y-95264342D01*
X121158095Y-95264342D02*
X121158095Y-95169104D01*
X121158095Y-95169104D02*
X121110476Y-95073866D01*
X121110476Y-95073866D02*
X121062857Y-95026247D01*
X121062857Y-95026247D02*
X120967619Y-94978628D01*
X120967619Y-94978628D02*
X120777143Y-94931009D01*
X120777143Y-94931009D02*
X120681905Y-94883390D01*
X120681905Y-94883390D02*
X120634286Y-94835771D01*
X120634286Y-94835771D02*
X120586667Y-94740533D01*
X120586667Y-94740533D02*
X120586667Y-94645295D01*
X120586667Y-94645295D02*
X120634286Y-94550057D01*
X120634286Y-94550057D02*
X120681905Y-94502438D01*
X120681905Y-94502438D02*
X120777143Y-94454819D01*
X120777143Y-94454819D02*
X121015238Y-94454819D01*
X121015238Y-94454819D02*
X121158095Y-94502438D01*
X121491429Y-94454819D02*
X121729524Y-95454819D01*
X121729524Y-95454819D02*
X121920000Y-94740533D01*
X121920000Y-94740533D02*
X122110476Y-95454819D01*
X122110476Y-95454819D02*
X122348572Y-94454819D01*
X122634286Y-94454819D02*
X123253333Y-94454819D01*
X123253333Y-94454819D02*
X122920000Y-94835771D01*
X122920000Y-94835771D02*
X123062857Y-94835771D01*
X123062857Y-94835771D02*
X123158095Y-94883390D01*
X123158095Y-94883390D02*
X123205714Y-94931009D01*
X123205714Y-94931009D02*
X123253333Y-95026247D01*
X123253333Y-95026247D02*
X123253333Y-95264342D01*
X123253333Y-95264342D02*
X123205714Y-95359580D01*
X123205714Y-95359580D02*
X123158095Y-95407200D01*
X123158095Y-95407200D02*
X123062857Y-95454819D01*
X123062857Y-95454819D02*
X122777143Y-95454819D01*
X122777143Y-95454819D02*
X122681905Y-95407200D01*
X122681905Y-95407200D02*
X122634286Y-95359580D01*
X120586667Y-76407200D02*
X120729524Y-76454819D01*
X120729524Y-76454819D02*
X120967619Y-76454819D01*
X120967619Y-76454819D02*
X121062857Y-76407200D01*
X121062857Y-76407200D02*
X121110476Y-76359580D01*
X121110476Y-76359580D02*
X121158095Y-76264342D01*
X121158095Y-76264342D02*
X121158095Y-76169104D01*
X121158095Y-76169104D02*
X121110476Y-76073866D01*
X121110476Y-76073866D02*
X121062857Y-76026247D01*
X121062857Y-76026247D02*
X120967619Y-75978628D01*
X120967619Y-75978628D02*
X120777143Y-75931009D01*
X120777143Y-75931009D02*
X120681905Y-75883390D01*
X120681905Y-75883390D02*
X120634286Y-75835771D01*
X120634286Y-75835771D02*
X120586667Y-75740533D01*
X120586667Y-75740533D02*
X120586667Y-75645295D01*
X120586667Y-75645295D02*
X120634286Y-75550057D01*
X120634286Y-75550057D02*
X120681905Y-75502438D01*
X120681905Y-75502438D02*
X120777143Y-75454819D01*
X120777143Y-75454819D02*
X121015238Y-75454819D01*
X121015238Y-75454819D02*
X121158095Y-75502438D01*
X121491429Y-75454819D02*
X121729524Y-76454819D01*
X121729524Y-76454819D02*
X121920000Y-75740533D01*
X121920000Y-75740533D02*
X122110476Y-76454819D01*
X122110476Y-76454819D02*
X122348572Y-75454819D01*
X122681905Y-75550057D02*
X122729524Y-75502438D01*
X122729524Y-75502438D02*
X122824762Y-75454819D01*
X122824762Y-75454819D02*
X123062857Y-75454819D01*
X123062857Y-75454819D02*
X123158095Y-75502438D01*
X123158095Y-75502438D02*
X123205714Y-75550057D01*
X123205714Y-75550057D02*
X123253333Y-75645295D01*
X123253333Y-75645295D02*
X123253333Y-75740533D01*
X123253333Y-75740533D02*
X123205714Y-75883390D01*
X123205714Y-75883390D02*
X122634286Y-76454819D01*
X122634286Y-76454819D02*
X123253333Y-76454819D01*
X120666667Y-57407200D02*
X120809524Y-57454819D01*
X120809524Y-57454819D02*
X121047619Y-57454819D01*
X121047619Y-57454819D02*
X121142857Y-57407200D01*
X121142857Y-57407200D02*
X121190476Y-57359580D01*
X121190476Y-57359580D02*
X121238095Y-57264342D01*
X121238095Y-57264342D02*
X121238095Y-57169104D01*
X121238095Y-57169104D02*
X121190476Y-57073866D01*
X121190476Y-57073866D02*
X121142857Y-57026247D01*
X121142857Y-57026247D02*
X121047619Y-56978628D01*
X121047619Y-56978628D02*
X120857143Y-56931009D01*
X120857143Y-56931009D02*
X120761905Y-56883390D01*
X120761905Y-56883390D02*
X120714286Y-56835771D01*
X120714286Y-56835771D02*
X120666667Y-56740533D01*
X120666667Y-56740533D02*
X120666667Y-56645295D01*
X120666667Y-56645295D02*
X120714286Y-56550057D01*
X120714286Y-56550057D02*
X120761905Y-56502438D01*
X120761905Y-56502438D02*
X120857143Y-56454819D01*
X120857143Y-56454819D02*
X121095238Y-56454819D01*
X121095238Y-56454819D02*
X121238095Y-56502438D01*
X121571429Y-56454819D02*
X121809524Y-57454819D01*
X121809524Y-57454819D02*
X122000000Y-56740533D01*
X122000000Y-56740533D02*
X122190476Y-57454819D01*
X122190476Y-57454819D02*
X122428572Y-56454819D01*
X123333333Y-57454819D02*
X122761905Y-57454819D01*
X123047619Y-57454819D02*
X123047619Y-56454819D01*
X123047619Y-56454819D02*
X122952381Y-56597676D01*
X122952381Y-56597676D02*
X122857143Y-56692914D01*
X122857143Y-56692914D02*
X122761905Y-56740533D01*
X166834819Y-64048094D02*
X165834819Y-64048094D01*
X165834819Y-64048094D02*
X165834819Y-63809999D01*
X165834819Y-63809999D02*
X165882438Y-63667142D01*
X165882438Y-63667142D02*
X165977676Y-63571904D01*
X165977676Y-63571904D02*
X166072914Y-63524285D01*
X166072914Y-63524285D02*
X166263390Y-63476666D01*
X166263390Y-63476666D02*
X166406247Y-63476666D01*
X166406247Y-63476666D02*
X166596723Y-63524285D01*
X166596723Y-63524285D02*
X166691961Y-63571904D01*
X166691961Y-63571904D02*
X166787200Y-63667142D01*
X166787200Y-63667142D02*
X166834819Y-63809999D01*
X166834819Y-63809999D02*
X166834819Y-64048094D01*
X165834819Y-63143332D02*
X165834819Y-62476666D01*
X165834819Y-62476666D02*
X166834819Y-62905237D01*
X167154819Y-67381904D02*
X166154819Y-67381904D01*
X167154819Y-66810476D02*
X166583390Y-67239047D01*
X166154819Y-66810476D02*
X166726247Y-67381904D01*
X147834819Y-64238094D02*
X146834819Y-64238094D01*
X146834819Y-64238094D02*
X146834819Y-63999999D01*
X146834819Y-63999999D02*
X146882438Y-63857142D01*
X146882438Y-63857142D02*
X146977676Y-63761904D01*
X146977676Y-63761904D02*
X147072914Y-63714285D01*
X147072914Y-63714285D02*
X147263390Y-63666666D01*
X147263390Y-63666666D02*
X147406247Y-63666666D01*
X147406247Y-63666666D02*
X147596723Y-63714285D01*
X147596723Y-63714285D02*
X147691961Y-63761904D01*
X147691961Y-63761904D02*
X147787200Y-63857142D01*
X147787200Y-63857142D02*
X147834819Y-63999999D01*
X147834819Y-63999999D02*
X147834819Y-64238094D01*
X147168152Y-62809523D02*
X147834819Y-62809523D01*
X146787200Y-63047618D02*
X147501485Y-63285713D01*
X147501485Y-63285713D02*
X147501485Y-62666666D01*
X148154819Y-67571904D02*
X147154819Y-67571904D01*
X148154819Y-67000476D02*
X147583390Y-67429047D01*
X147154819Y-67000476D02*
X147726247Y-67571904D01*
X128834819Y-64238094D02*
X127834819Y-64238094D01*
X127834819Y-64238094D02*
X127834819Y-63999999D01*
X127834819Y-63999999D02*
X127882438Y-63857142D01*
X127882438Y-63857142D02*
X127977676Y-63761904D01*
X127977676Y-63761904D02*
X128072914Y-63714285D01*
X128072914Y-63714285D02*
X128263390Y-63666666D01*
X128263390Y-63666666D02*
X128406247Y-63666666D01*
X128406247Y-63666666D02*
X128596723Y-63714285D01*
X128596723Y-63714285D02*
X128691961Y-63761904D01*
X128691961Y-63761904D02*
X128787200Y-63857142D01*
X128787200Y-63857142D02*
X128834819Y-63999999D01*
X128834819Y-63999999D02*
X128834819Y-64238094D01*
X128834819Y-62714285D02*
X128834819Y-63285713D01*
X128834819Y-62999999D02*
X127834819Y-62999999D01*
X127834819Y-62999999D02*
X127977676Y-63095237D01*
X127977676Y-63095237D02*
X128072914Y-63190475D01*
X128072914Y-63190475D02*
X128120533Y-63285713D01*
X129154819Y-67571904D02*
X128154819Y-67571904D01*
X129154819Y-67000476D02*
X128583390Y-67429047D01*
X128154819Y-67000476D02*
X128726247Y-67571904D01*
X128834819Y-83548094D02*
X127834819Y-83548094D01*
X127834819Y-83548094D02*
X127834819Y-83309999D01*
X127834819Y-83309999D02*
X127882438Y-83167142D01*
X127882438Y-83167142D02*
X127977676Y-83071904D01*
X127977676Y-83071904D02*
X128072914Y-83024285D01*
X128072914Y-83024285D02*
X128263390Y-82976666D01*
X128263390Y-82976666D02*
X128406247Y-82976666D01*
X128406247Y-82976666D02*
X128596723Y-83024285D01*
X128596723Y-83024285D02*
X128691961Y-83071904D01*
X128691961Y-83071904D02*
X128787200Y-83167142D01*
X128787200Y-83167142D02*
X128834819Y-83309999D01*
X128834819Y-83309999D02*
X128834819Y-83548094D01*
X127930057Y-82595713D02*
X127882438Y-82548094D01*
X127882438Y-82548094D02*
X127834819Y-82452856D01*
X127834819Y-82452856D02*
X127834819Y-82214761D01*
X127834819Y-82214761D02*
X127882438Y-82119523D01*
X127882438Y-82119523D02*
X127930057Y-82071904D01*
X127930057Y-82071904D02*
X128025295Y-82024285D01*
X128025295Y-82024285D02*
X128120533Y-82024285D01*
X128120533Y-82024285D02*
X128263390Y-82071904D01*
X128263390Y-82071904D02*
X128834819Y-82643332D01*
X128834819Y-82643332D02*
X128834819Y-82024285D01*
X129154819Y-86881904D02*
X128154819Y-86881904D01*
X129154819Y-86310476D02*
X128583390Y-86739047D01*
X128154819Y-86310476D02*
X128726247Y-86881904D01*
X147834819Y-83548094D02*
X146834819Y-83548094D01*
X146834819Y-83548094D02*
X146834819Y-83309999D01*
X146834819Y-83309999D02*
X146882438Y-83167142D01*
X146882438Y-83167142D02*
X146977676Y-83071904D01*
X146977676Y-83071904D02*
X147072914Y-83024285D01*
X147072914Y-83024285D02*
X147263390Y-82976666D01*
X147263390Y-82976666D02*
X147406247Y-82976666D01*
X147406247Y-82976666D02*
X147596723Y-83024285D01*
X147596723Y-83024285D02*
X147691961Y-83071904D01*
X147691961Y-83071904D02*
X147787200Y-83167142D01*
X147787200Y-83167142D02*
X147834819Y-83309999D01*
X147834819Y-83309999D02*
X147834819Y-83548094D01*
X146834819Y-82071904D02*
X146834819Y-82548094D01*
X146834819Y-82548094D02*
X147311009Y-82595713D01*
X147311009Y-82595713D02*
X147263390Y-82548094D01*
X147263390Y-82548094D02*
X147215771Y-82452856D01*
X147215771Y-82452856D02*
X147215771Y-82214761D01*
X147215771Y-82214761D02*
X147263390Y-82119523D01*
X147263390Y-82119523D02*
X147311009Y-82071904D01*
X147311009Y-82071904D02*
X147406247Y-82024285D01*
X147406247Y-82024285D02*
X147644342Y-82024285D01*
X147644342Y-82024285D02*
X147739580Y-82071904D01*
X147739580Y-82071904D02*
X147787200Y-82119523D01*
X147787200Y-82119523D02*
X147834819Y-82214761D01*
X147834819Y-82214761D02*
X147834819Y-82452856D01*
X147834819Y-82452856D02*
X147787200Y-82548094D01*
X147787200Y-82548094D02*
X147739580Y-82595713D01*
X148154819Y-86881904D02*
X147154819Y-86881904D01*
X148154819Y-86310476D02*
X147583390Y-86739047D01*
X147154819Y-86310476D02*
X147726247Y-86881904D01*
X166834819Y-102548094D02*
X165834819Y-102548094D01*
X165834819Y-102548094D02*
X165834819Y-102309999D01*
X165834819Y-102309999D02*
X165882438Y-102167142D01*
X165882438Y-102167142D02*
X165977676Y-102071904D01*
X165977676Y-102071904D02*
X166072914Y-102024285D01*
X166072914Y-102024285D02*
X166263390Y-101976666D01*
X166263390Y-101976666D02*
X166406247Y-101976666D01*
X166406247Y-101976666D02*
X166596723Y-102024285D01*
X166596723Y-102024285D02*
X166691961Y-102071904D01*
X166691961Y-102071904D02*
X166787200Y-102167142D01*
X166787200Y-102167142D02*
X166834819Y-102309999D01*
X166834819Y-102309999D02*
X166834819Y-102548094D01*
X166834819Y-101500475D02*
X166834819Y-101309999D01*
X166834819Y-101309999D02*
X166787200Y-101214761D01*
X166787200Y-101214761D02*
X166739580Y-101167142D01*
X166739580Y-101167142D02*
X166596723Y-101071904D01*
X166596723Y-101071904D02*
X166406247Y-101024285D01*
X166406247Y-101024285D02*
X166025295Y-101024285D01*
X166025295Y-101024285D02*
X165930057Y-101071904D01*
X165930057Y-101071904D02*
X165882438Y-101119523D01*
X165882438Y-101119523D02*
X165834819Y-101214761D01*
X165834819Y-101214761D02*
X165834819Y-101405237D01*
X165834819Y-101405237D02*
X165882438Y-101500475D01*
X165882438Y-101500475D02*
X165930057Y-101548094D01*
X165930057Y-101548094D02*
X166025295Y-101595713D01*
X166025295Y-101595713D02*
X166263390Y-101595713D01*
X166263390Y-101595713D02*
X166358628Y-101548094D01*
X166358628Y-101548094D02*
X166406247Y-101500475D01*
X166406247Y-101500475D02*
X166453866Y-101405237D01*
X166453866Y-101405237D02*
X166453866Y-101214761D01*
X166453866Y-101214761D02*
X166406247Y-101119523D01*
X166406247Y-101119523D02*
X166358628Y-101071904D01*
X166358628Y-101071904D02*
X166263390Y-101024285D01*
X167154819Y-105881904D02*
X166154819Y-105881904D01*
X167154819Y-105310476D02*
X166583390Y-105739047D01*
X166154819Y-105310476D02*
X166726247Y-105881904D01*
X128834819Y-102548094D02*
X127834819Y-102548094D01*
X127834819Y-102548094D02*
X127834819Y-102309999D01*
X127834819Y-102309999D02*
X127882438Y-102167142D01*
X127882438Y-102167142D02*
X127977676Y-102071904D01*
X127977676Y-102071904D02*
X128072914Y-102024285D01*
X128072914Y-102024285D02*
X128263390Y-101976666D01*
X128263390Y-101976666D02*
X128406247Y-101976666D01*
X128406247Y-101976666D02*
X128596723Y-102024285D01*
X128596723Y-102024285D02*
X128691961Y-102071904D01*
X128691961Y-102071904D02*
X128787200Y-102167142D01*
X128787200Y-102167142D02*
X128834819Y-102309999D01*
X128834819Y-102309999D02*
X128834819Y-102548094D01*
X127834819Y-101643332D02*
X127834819Y-101024285D01*
X127834819Y-101024285D02*
X128215771Y-101357618D01*
X128215771Y-101357618D02*
X128215771Y-101214761D01*
X128215771Y-101214761D02*
X128263390Y-101119523D01*
X128263390Y-101119523D02*
X128311009Y-101071904D01*
X128311009Y-101071904D02*
X128406247Y-101024285D01*
X128406247Y-101024285D02*
X128644342Y-101024285D01*
X128644342Y-101024285D02*
X128739580Y-101071904D01*
X128739580Y-101071904D02*
X128787200Y-101119523D01*
X128787200Y-101119523D02*
X128834819Y-101214761D01*
X128834819Y-101214761D02*
X128834819Y-101500475D01*
X128834819Y-101500475D02*
X128787200Y-101595713D01*
X128787200Y-101595713D02*
X128739580Y-101643332D01*
X129154819Y-105881904D02*
X128154819Y-105881904D01*
X129154819Y-105310476D02*
X128583390Y-105739047D01*
X128154819Y-105310476D02*
X128726247Y-105881904D01*
X147834819Y-102548094D02*
X146834819Y-102548094D01*
X146834819Y-102548094D02*
X146834819Y-102309999D01*
X146834819Y-102309999D02*
X146882438Y-102167142D01*
X146882438Y-102167142D02*
X146977676Y-102071904D01*
X146977676Y-102071904D02*
X147072914Y-102024285D01*
X147072914Y-102024285D02*
X147263390Y-101976666D01*
X147263390Y-101976666D02*
X147406247Y-101976666D01*
X147406247Y-101976666D02*
X147596723Y-102024285D01*
X147596723Y-102024285D02*
X147691961Y-102071904D01*
X147691961Y-102071904D02*
X147787200Y-102167142D01*
X147787200Y-102167142D02*
X147834819Y-102309999D01*
X147834819Y-102309999D02*
X147834819Y-102548094D01*
X146834819Y-101119523D02*
X146834819Y-101309999D01*
X146834819Y-101309999D02*
X146882438Y-101405237D01*
X146882438Y-101405237D02*
X146930057Y-101452856D01*
X146930057Y-101452856D02*
X147072914Y-101548094D01*
X147072914Y-101548094D02*
X147263390Y-101595713D01*
X147263390Y-101595713D02*
X147644342Y-101595713D01*
X147644342Y-101595713D02*
X147739580Y-101548094D01*
X147739580Y-101548094D02*
X147787200Y-101500475D01*
X147787200Y-101500475D02*
X147834819Y-101405237D01*
X147834819Y-101405237D02*
X147834819Y-101214761D01*
X147834819Y-101214761D02*
X147787200Y-101119523D01*
X147787200Y-101119523D02*
X147739580Y-101071904D01*
X147739580Y-101071904D02*
X147644342Y-101024285D01*
X147644342Y-101024285D02*
X147406247Y-101024285D01*
X147406247Y-101024285D02*
X147311009Y-101071904D01*
X147311009Y-101071904D02*
X147263390Y-101119523D01*
X147263390Y-101119523D02*
X147215771Y-101214761D01*
X147215771Y-101214761D02*
X147215771Y-101405237D01*
X147215771Y-101405237D02*
X147263390Y-101500475D01*
X147263390Y-101500475D02*
X147311009Y-101548094D01*
X147311009Y-101548094D02*
X147406247Y-101595713D01*
X148154819Y-105881904D02*
X147154819Y-105881904D01*
X148154819Y-105310476D02*
X147583390Y-105739047D01*
X147154819Y-105310476D02*
X147726247Y-105881904D01*
X166834819Y-83548094D02*
X165834819Y-83548094D01*
X165834819Y-83548094D02*
X165834819Y-83309999D01*
X165834819Y-83309999D02*
X165882438Y-83167142D01*
X165882438Y-83167142D02*
X165977676Y-83071904D01*
X165977676Y-83071904D02*
X166072914Y-83024285D01*
X166072914Y-83024285D02*
X166263390Y-82976666D01*
X166263390Y-82976666D02*
X166406247Y-82976666D01*
X166406247Y-82976666D02*
X166596723Y-83024285D01*
X166596723Y-83024285D02*
X166691961Y-83071904D01*
X166691961Y-83071904D02*
X166787200Y-83167142D01*
X166787200Y-83167142D02*
X166834819Y-83309999D01*
X166834819Y-83309999D02*
X166834819Y-83548094D01*
X166263390Y-82405237D02*
X166215771Y-82500475D01*
X166215771Y-82500475D02*
X166168152Y-82548094D01*
X166168152Y-82548094D02*
X166072914Y-82595713D01*
X166072914Y-82595713D02*
X166025295Y-82595713D01*
X166025295Y-82595713D02*
X165930057Y-82548094D01*
X165930057Y-82548094D02*
X165882438Y-82500475D01*
X165882438Y-82500475D02*
X165834819Y-82405237D01*
X165834819Y-82405237D02*
X165834819Y-82214761D01*
X165834819Y-82214761D02*
X165882438Y-82119523D01*
X165882438Y-82119523D02*
X165930057Y-82071904D01*
X165930057Y-82071904D02*
X166025295Y-82024285D01*
X166025295Y-82024285D02*
X166072914Y-82024285D01*
X166072914Y-82024285D02*
X166168152Y-82071904D01*
X166168152Y-82071904D02*
X166215771Y-82119523D01*
X166215771Y-82119523D02*
X166263390Y-82214761D01*
X166263390Y-82214761D02*
X166263390Y-82405237D01*
X166263390Y-82405237D02*
X166311009Y-82500475D01*
X166311009Y-82500475D02*
X166358628Y-82548094D01*
X166358628Y-82548094D02*
X166453866Y-82595713D01*
X166453866Y-82595713D02*
X166644342Y-82595713D01*
X166644342Y-82595713D02*
X166739580Y-82548094D01*
X166739580Y-82548094D02*
X166787200Y-82500475D01*
X166787200Y-82500475D02*
X166834819Y-82405237D01*
X166834819Y-82405237D02*
X166834819Y-82214761D01*
X166834819Y-82214761D02*
X166787200Y-82119523D01*
X166787200Y-82119523D02*
X166739580Y-82071904D01*
X166739580Y-82071904D02*
X166644342Y-82024285D01*
X166644342Y-82024285D02*
X166453866Y-82024285D01*
X166453866Y-82024285D02*
X166358628Y-82071904D01*
X166358628Y-82071904D02*
X166311009Y-82119523D01*
X166311009Y-82119523D02*
X166263390Y-82214761D01*
X167154819Y-86881904D02*
X166154819Y-86881904D01*
X167154819Y-86310476D02*
X166583390Y-86739047D01*
X166154819Y-86310476D02*
X166726247Y-86881904D01*
D11*
%TO.C,A1*%
X199579676Y-109727437D02*
G75*
G02*
X199000000Y-110147569I-579676J189837D01*
G01*
X199000000Y-58927500D02*
G75*
G02*
X199579676Y-59347563I0J-610000D01*
G01*
X179000000Y-110147500D02*
G75*
G02*
X178420324Y-109727437I1J610002D01*
G01*
X178420324Y-59347500D02*
G75*
G02*
X179000000Y-58927500I579692J-190051D01*
G01*
X199610000Y-107187500D02*
X199610000Y-107607500D01*
X199610000Y-104647500D02*
X199610000Y-105067500D01*
X199610000Y-102107500D02*
X199610000Y-102527500D01*
X199610000Y-99567500D02*
X199610000Y-99987500D01*
X199610000Y-97027500D02*
X199610000Y-97447500D01*
X199610000Y-94487500D02*
X199610000Y-94907500D01*
X199610000Y-91947500D02*
X199610000Y-92367500D01*
X199610000Y-89407500D02*
X199610000Y-89827500D01*
X199610000Y-86867500D02*
X199610000Y-87287500D01*
X199610000Y-84327500D02*
X199610000Y-84747500D01*
X199610000Y-81787500D02*
X199610000Y-82207500D01*
X199610000Y-79247500D02*
X199610000Y-79667500D01*
X199610000Y-76707500D02*
X199610000Y-77127500D01*
X199610000Y-74167500D02*
X199610000Y-74587500D01*
X199610000Y-71627500D02*
X199610000Y-72047500D01*
X199610000Y-69087500D02*
X199610000Y-69507500D01*
X199610000Y-66547500D02*
X199610000Y-66967500D01*
X199610000Y-64007500D02*
X199610000Y-64427500D01*
X199610000Y-61467500D02*
X199610000Y-61887500D01*
X199270000Y-109727437D02*
X199270000Y-110084500D01*
X199270000Y-107187500D02*
X199270000Y-107607500D01*
X199270000Y-104647500D02*
X199270000Y-105067500D01*
X199270000Y-102107500D02*
X199270000Y-102527500D01*
X199270000Y-99567500D02*
X199270000Y-99987500D01*
X199270000Y-97027500D02*
X199270000Y-97447500D01*
X199270000Y-94487500D02*
X199270000Y-94907500D01*
X199270000Y-91947500D02*
X199270000Y-92367500D01*
X199270000Y-89407500D02*
X199270000Y-89827500D01*
X199270000Y-86867500D02*
X199270000Y-87287500D01*
X199270000Y-84327500D02*
X199270000Y-84747500D01*
X199270000Y-81787500D02*
X199270000Y-82207500D01*
X199270000Y-79247500D02*
X199270000Y-79667500D01*
X199270000Y-76707500D02*
X199270000Y-77127500D01*
X199270000Y-74167500D02*
X199270000Y-74587500D01*
X199270000Y-71627500D02*
X199270000Y-72047500D01*
X199270000Y-69087500D02*
X199270000Y-69507500D01*
X199270000Y-66547500D02*
X199270000Y-66967500D01*
X199270000Y-64007500D02*
X199270000Y-64427500D01*
X199270000Y-61467500D02*
X199270000Y-61887500D01*
X199270000Y-59347563D02*
X199270000Y-58990500D01*
X199000000Y-58927500D02*
X196510000Y-58927500D01*
X196510000Y-109233980D02*
X196510000Y-110147500D01*
X196510000Y-62233980D02*
X196510000Y-106841020D01*
X196510000Y-58927500D02*
X196510000Y-59841020D01*
X195162061Y-110147500D02*
X199000000Y-110147500D01*
X195162061Y-58927500D02*
X196510000Y-58927500D01*
X194237939Y-110147500D02*
X192600000Y-110147500D01*
X193235000Y-58927500D02*
X194237939Y-58927500D01*
X192900000Y-62231500D02*
X192900000Y-63447500D01*
X192900000Y-58927500D02*
X192900000Y-59843500D01*
X192603910Y-63447500D02*
X192900000Y-63447500D01*
X192600000Y-110147500D02*
X185400000Y-110147500D01*
X187753910Y-63447500D02*
X190246090Y-63447500D01*
X185400000Y-110147500D02*
X183762061Y-110147500D01*
X185100000Y-63447500D02*
X185396090Y-63447500D01*
X185100000Y-62231500D02*
X185100000Y-63447500D01*
X185100000Y-58927500D02*
X185100000Y-59843500D01*
X184765000Y-58927500D02*
X193235000Y-58927500D01*
X183762061Y-58927500D02*
X184765000Y-58927500D01*
X181490000Y-109233980D02*
X181490000Y-110147500D01*
X181490000Y-62233980D02*
X181490000Y-106841020D01*
X181490000Y-58927500D02*
X182837940Y-58927500D01*
X181490000Y-58927500D02*
X181490000Y-59841020D01*
X179000000Y-110147500D02*
X182837939Y-110147500D01*
X179000000Y-58927500D02*
X181490000Y-58927500D01*
X178730000Y-109727437D02*
X178730000Y-110084500D01*
X178730000Y-107187500D02*
X178730000Y-107607500D01*
X178730000Y-104647500D02*
X178730000Y-105067500D01*
X178730000Y-102107500D02*
X178730000Y-102527500D01*
X178730000Y-99567500D02*
X178730000Y-99987500D01*
X178730000Y-97027500D02*
X178730000Y-97447500D01*
X178730000Y-94487500D02*
X178730000Y-94907500D01*
X178730000Y-91947500D02*
X178730000Y-92367500D01*
X178730000Y-89407500D02*
X178730000Y-89827500D01*
X178730000Y-86867500D02*
X178730000Y-87287500D01*
X178730000Y-84327500D02*
X178730000Y-84747500D01*
X178730000Y-81787500D02*
X178730000Y-82207500D01*
X178730000Y-79247500D02*
X178730000Y-79667500D01*
X178730000Y-76707500D02*
X178730000Y-77127500D01*
X178730000Y-74167500D02*
X178730000Y-74587500D01*
X178730000Y-71627500D02*
X178730000Y-72047500D01*
X178730000Y-69087500D02*
X178730000Y-69507500D01*
X178730000Y-66547500D02*
X178730000Y-66967500D01*
X178730000Y-64007500D02*
X178730000Y-64427500D01*
X178730000Y-61467500D02*
X178730000Y-61887500D01*
X178730000Y-59347563D02*
X178730000Y-58990500D01*
X178420324Y-59347500D02*
X177910000Y-59347500D01*
X178390000Y-107187500D02*
X178390000Y-107607500D01*
X178390000Y-104647500D02*
X178390000Y-105067500D01*
X178390000Y-102107500D02*
X178390000Y-102527500D01*
X178390000Y-99567500D02*
X178390000Y-99987500D01*
X178390000Y-97027500D02*
X178390000Y-97447500D01*
X178390000Y-94487500D02*
X178390000Y-94907500D01*
X178390000Y-91947500D02*
X178390000Y-92367500D01*
X178390000Y-89407500D02*
X178390000Y-89827500D01*
X178390000Y-86867500D02*
X178390000Y-87287500D01*
X178390000Y-84327500D02*
X178390000Y-84747500D01*
X178390000Y-81787500D02*
X178390000Y-82207500D01*
X178390000Y-79247500D02*
X178390000Y-79667500D01*
X178390000Y-76707500D02*
X178390000Y-77127500D01*
X178390000Y-74167500D02*
X178390000Y-74587500D01*
X178390000Y-71627500D02*
X178390000Y-72047500D01*
X178390000Y-69087500D02*
X178390000Y-69507500D01*
X178390000Y-66547500D02*
X178390000Y-66967500D01*
X178390000Y-64007500D02*
X178390000Y-64427500D01*
X178390000Y-61467500D02*
X178390000Y-61887500D01*
X178390000Y-61467500D02*
X177910000Y-61467500D01*
%TO.C,SW9*%
X167020000Y-95900000D02*
X152820000Y-95900000D01*
X167020000Y-110100000D02*
X167020000Y-95900000D01*
X152820000Y-110100000D02*
X167020000Y-110100000D01*
X152820000Y-95900000D02*
X152820000Y-110100000D01*
%TO.C,SW8*%
X167020000Y-76900000D02*
X152820000Y-76900000D01*
X167020000Y-91100000D02*
X167020000Y-76900000D01*
X152820000Y-91100000D02*
X167020000Y-91100000D01*
X152820000Y-76900000D02*
X152820000Y-91100000D01*
%TO.C,SW7*%
X167060000Y-57800000D02*
X152860000Y-57800000D01*
X167060000Y-72000000D02*
X167060000Y-57800000D01*
X152860000Y-72000000D02*
X167060000Y-72000000D01*
X152860000Y-57800000D02*
X152860000Y-72000000D01*
%TO.C,SW6*%
X148020000Y-95900000D02*
X133820000Y-95900000D01*
X148020000Y-110100000D02*
X148020000Y-95900000D01*
X133820000Y-110100000D02*
X148020000Y-110100000D01*
X133820000Y-95900000D02*
X133820000Y-110100000D01*
%TO.C,SW5*%
X148020000Y-76900000D02*
X133820000Y-76900000D01*
X148020000Y-91100000D02*
X148020000Y-76900000D01*
X133820000Y-91100000D02*
X148020000Y-91100000D01*
X133820000Y-76900000D02*
X133820000Y-91100000D01*
%TO.C,SW4*%
X148020000Y-57900000D02*
X133820000Y-57900000D01*
X148020000Y-72100000D02*
X148020000Y-57900000D01*
X133820000Y-72100000D02*
X148020000Y-72100000D01*
X133820000Y-57900000D02*
X133820000Y-72100000D01*
%TO.C,SW3*%
X129020000Y-95900000D02*
X114820000Y-95900000D01*
X129020000Y-110100000D02*
X129020000Y-95900000D01*
X114820000Y-110100000D02*
X129020000Y-110100000D01*
X114820000Y-95900000D02*
X114820000Y-110100000D01*
%TO.C,SW2*%
X129020000Y-76900000D02*
X114820000Y-76900000D01*
X129020000Y-91100000D02*
X129020000Y-76900000D01*
X114820000Y-91100000D02*
X129020000Y-91100000D01*
X114820000Y-76900000D02*
X114820000Y-91100000D01*
%TO.C,SW1*%
X129100000Y-57900000D02*
X114900000Y-57900000D01*
X129100000Y-72100000D02*
X129100000Y-57900000D01*
X114900000Y-72100000D02*
X129100000Y-72100000D01*
X114900000Y-57900000D02*
X114900000Y-72100000D01*
%TO.C,D7*%
X168500000Y-66080000D02*
X168500000Y-65430000D01*
X167380000Y-64830000D02*
X169620000Y-64830000D01*
X167380000Y-64710000D02*
X169620000Y-64710000D01*
X167380000Y-64590000D02*
X169620000Y-64590000D01*
X168500000Y-60540000D02*
X168500000Y-61190000D01*
X167380000Y-65430000D02*
X169620000Y-65430000D01*
X169620000Y-61190000D01*
X167380000Y-61190000D01*
X167380000Y-65430000D01*
%TO.C,D4*%
X149500000Y-66270000D02*
X149500000Y-65620000D01*
X148380000Y-65020000D02*
X150620000Y-65020000D01*
X148380000Y-64900000D02*
X150620000Y-64900000D01*
X148380000Y-64780000D02*
X150620000Y-64780000D01*
X149500000Y-60730000D02*
X149500000Y-61380000D01*
X148380000Y-65620000D02*
X150620000Y-65620000D01*
X150620000Y-61380000D01*
X148380000Y-61380000D01*
X148380000Y-65620000D01*
%TO.C,D1*%
X130500000Y-66270000D02*
X130500000Y-65620000D01*
X129380000Y-65020000D02*
X131620000Y-65020000D01*
X129380000Y-64900000D02*
X131620000Y-64900000D01*
X129380000Y-64780000D02*
X131620000Y-64780000D01*
X130500000Y-60730000D02*
X130500000Y-61380000D01*
X129380000Y-65620000D02*
X131620000Y-65620000D01*
X131620000Y-61380000D01*
X129380000Y-61380000D01*
X129380000Y-65620000D01*
%TO.C,D2*%
X129380000Y-84930000D02*
X131620000Y-84930000D01*
X131620000Y-80690000D01*
X129380000Y-80690000D01*
X129380000Y-84930000D01*
X130500000Y-80040000D02*
X130500000Y-80690000D01*
X129380000Y-84090000D02*
X131620000Y-84090000D01*
X129380000Y-84210000D02*
X131620000Y-84210000D01*
X129380000Y-84330000D02*
X131620000Y-84330000D01*
X130500000Y-85580000D02*
X130500000Y-84930000D01*
%TO.C,D5*%
X148380000Y-84930000D02*
X150620000Y-84930000D01*
X150620000Y-80690000D01*
X148380000Y-80690000D01*
X148380000Y-84930000D01*
X149500000Y-80040000D02*
X149500000Y-80690000D01*
X148380000Y-84090000D02*
X150620000Y-84090000D01*
X148380000Y-84210000D02*
X150620000Y-84210000D01*
X148380000Y-84330000D02*
X150620000Y-84330000D01*
X149500000Y-85580000D02*
X149500000Y-84930000D01*
%TO.C,D9*%
X167380000Y-103930000D02*
X169620000Y-103930000D01*
X169620000Y-99690000D01*
X167380000Y-99690000D01*
X167380000Y-103930000D01*
X168500000Y-99040000D02*
X168500000Y-99690000D01*
X167380000Y-103090000D02*
X169620000Y-103090000D01*
X167380000Y-103210000D02*
X169620000Y-103210000D01*
X167380000Y-103330000D02*
X169620000Y-103330000D01*
X168500000Y-104580000D02*
X168500000Y-103930000D01*
%TO.C,D3*%
X129380000Y-103930000D02*
X131620000Y-103930000D01*
X131620000Y-99690000D01*
X129380000Y-99690000D01*
X129380000Y-103930000D01*
X130500000Y-99040000D02*
X130500000Y-99690000D01*
X129380000Y-103090000D02*
X131620000Y-103090000D01*
X129380000Y-103210000D02*
X131620000Y-103210000D01*
X129380000Y-103330000D02*
X131620000Y-103330000D01*
X130500000Y-104580000D02*
X130500000Y-103930000D01*
%TO.C,D6*%
X148380000Y-103930000D02*
X150620000Y-103930000D01*
X150620000Y-99690000D01*
X148380000Y-99690000D01*
X148380000Y-103930000D01*
X149500000Y-99040000D02*
X149500000Y-99690000D01*
X148380000Y-103090000D02*
X150620000Y-103090000D01*
X148380000Y-103210000D02*
X150620000Y-103210000D01*
X148380000Y-103330000D02*
X150620000Y-103330000D01*
X149500000Y-104580000D02*
X149500000Y-103930000D01*
%TO.C,D8*%
X167380000Y-84930000D02*
X169620000Y-84930000D01*
X169620000Y-80690000D01*
X167380000Y-80690000D01*
X167380000Y-84930000D01*
X168500000Y-80040000D02*
X168500000Y-80690000D01*
X167380000Y-84090000D02*
X169620000Y-84090000D01*
X167380000Y-84210000D02*
X169620000Y-84210000D01*
X167380000Y-84330000D02*
X169620000Y-84330000D01*
X168500000Y-85580000D02*
X168500000Y-84930000D01*
%TD*%
M02*
