%TF.GenerationSoftware,KiCad,Pcbnew,9.0.2*%
%TF.CreationDate,2025-05-16T17:45:02-05:00*%
%TF.ProjectId,main,6d61696e-2e6b-4696-9361-645f70636258,rev?*%
%TF.SameCoordinates,Original*%
%TF.FileFunction,Soldermask,Bot*%
%TF.FilePolarity,Negative*%
%FSLAX46Y46*%
G04 Gerber Fmt 4.6, Leading zero omitted, Abs format (unit mm)*
G04 Created by KiCad (PCBNEW 9.0.2) date 2025-05-16 17:45:02*
%MOMM*%
%LPD*%
G01*
G04 APERTURE LIST*
G04 Aperture macros list*
%AMRoundRect*
0 Rectangle with rounded corners*
0 $1 Rounding radius*
0 $2 $3 $4 $5 $6 $7 $8 $9 X,Y pos of 4 corners*
0 Add a 4 corners polygon primitive as box body*
4,1,4,$2,$3,$4,$5,$6,$7,$8,$9,$2,$3,0*
0 Add four circle primitives for the rounded corners*
1,1,$1+$1,$2,$3*
1,1,$1+$1,$4,$5*
1,1,$1+$1,$6,$7*
1,1,$1+$1,$8,$9*
0 Add four rect primitives between the rounded corners*
20,1,$1+$1,$2,$3,$4,$5,0*
20,1,$1+$1,$4,$5,$6,$7,0*
20,1,$1+$1,$6,$7,$8,$9,0*
20,1,$1+$1,$8,$9,$2,$3,0*%
%AMFreePoly0*
4,1,37,0.000000,0.796148,0.078414,0.796148,0.232228,0.765552,0.377117,0.705537,0.507515,0.618408,0.618408,0.507515,0.705537,0.377117,0.765552,0.232228,0.796148,0.078414,0.796148,-0.078414,0.765552,-0.232228,0.705537,-0.377117,0.618408,-0.507515,0.507515,-0.618408,0.377117,-0.705537,0.232228,-0.765552,0.078414,-0.796148,0.000000,-0.796148,0.000000,-0.800000,-0.600000,-0.800000,
-0.603843,-0.796157,-0.639018,-0.796157,-0.711114,-0.766294,-0.766294,-0.711114,-0.796157,-0.639018,-0.796157,-0.603843,-0.800000,-0.600000,-0.800000,0.600000,-0.796157,0.603843,-0.796157,0.639018,-0.766294,0.711114,-0.711114,0.766294,-0.639018,0.796157,-0.603843,0.796157,-0.600000,0.800000,0.000000,0.800000,0.000000,0.796148,0.000000,0.796148,$1*%
%AMFreePoly1*
4,1,37,0.603843,0.796157,0.639018,0.796157,0.711114,0.766294,0.766294,0.711114,0.796157,0.639018,0.796157,0.603843,0.800000,0.600000,0.800000,-0.600000,0.796157,-0.603843,0.796157,-0.639018,0.766294,-0.711114,0.711114,-0.766294,0.639018,-0.796157,0.603843,-0.796157,0.600000,-0.800000,0.000000,-0.800000,0.000000,-0.796148,-0.078414,-0.796148,-0.232228,-0.765552,-0.377117,-0.705537,
-0.507515,-0.618408,-0.618408,-0.507515,-0.705537,-0.377117,-0.765552,-0.232228,-0.796148,-0.078414,-0.796148,0.078414,-0.765552,0.232228,-0.705537,0.377117,-0.618408,0.507515,-0.507515,0.618408,-0.377117,0.705537,-0.232228,0.765552,-0.078414,0.796148,0.000000,0.796148,0.000000,0.800000,0.600000,0.800000,0.603843,0.796157,0.603843,0.796157,$1*%
G04 Aperture macros list end*
%ADD10C,1.600000*%
%ADD11FreePoly0,0.000000*%
%ADD12FreePoly1,0.000000*%
%ADD13RoundRect,0.200000X-0.600000X-0.600000X0.600000X-0.600000X0.600000X0.600000X-0.600000X0.600000X0*%
%ADD14C,2.200000*%
%ADD15C,1.850000*%
%ADD16C,1.750000*%
%ADD17C,4.000000*%
%ADD18C,2.500000*%
%ADD19RoundRect,0.250000X0.550000X-0.550000X0.550000X0.550000X-0.550000X0.550000X-0.550000X-0.550000X0*%
G04 APERTURE END LIST*
D10*
%TO.C,A1*%
X197890000Y-60407500D03*
X197890000Y-62947500D03*
D11*
X197890000Y-65487500D03*
D10*
X197890000Y-68027500D03*
X197890000Y-70567500D03*
X197890000Y-73107500D03*
X197890000Y-75647500D03*
D11*
X197890000Y-78187500D03*
D10*
X197890000Y-80727500D03*
X197890000Y-83267500D03*
X197890000Y-85807500D03*
X197890000Y-88347500D03*
D11*
X197890000Y-90887500D03*
D10*
X197890000Y-93427500D03*
X197890000Y-95967500D03*
X197890000Y-98507500D03*
X197890000Y-101047500D03*
D11*
X197890000Y-103587500D03*
D10*
X197890000Y-106127500D03*
X197890000Y-108667500D03*
X180110000Y-108667500D03*
X180110000Y-106127500D03*
D12*
X180110000Y-103587500D03*
D10*
X180110000Y-101047500D03*
X180110000Y-98507500D03*
X180110000Y-95967500D03*
X180110000Y-93427500D03*
D12*
X180110000Y-90887500D03*
D10*
X180110000Y-88347500D03*
X180110000Y-85807500D03*
X180110000Y-83267500D03*
X180110000Y-80727500D03*
D12*
X180110000Y-78187500D03*
D10*
X180110000Y-75647500D03*
X180110000Y-73107500D03*
X180110000Y-70567500D03*
X180110000Y-68027500D03*
D12*
X180110000Y-65487500D03*
D10*
X180110000Y-62947500D03*
D13*
X180110000Y-60407500D03*
D14*
X191725000Y-60537500D03*
D15*
X191425000Y-63567500D03*
X186575000Y-63567500D03*
D14*
X186275000Y-60537500D03*
%TD*%
D16*
%TO.C,SW9*%
X165000000Y-103000000D03*
X154840000Y-103000000D03*
D17*
X159920000Y-103000000D03*
D18*
X162460000Y-97920000D03*
X156110000Y-100460000D03*
%TD*%
D16*
%TO.C,SW8*%
X165000000Y-84000000D03*
X154840000Y-84000000D03*
D17*
X159920000Y-84000000D03*
D18*
X162460000Y-78920000D03*
X156110000Y-81460000D03*
%TD*%
D16*
%TO.C,SW7*%
X165040000Y-64900000D03*
X154880000Y-64900000D03*
D17*
X159960000Y-64900000D03*
D18*
X162500000Y-59820000D03*
X156150000Y-62360000D03*
%TD*%
D16*
%TO.C,SW6*%
X146000000Y-103000000D03*
X135840000Y-103000000D03*
D17*
X140920000Y-103000000D03*
D18*
X143460000Y-97920000D03*
X137110000Y-100460000D03*
%TD*%
D16*
%TO.C,SW5*%
X146000000Y-84000000D03*
X135840000Y-84000000D03*
D17*
X140920000Y-84000000D03*
D18*
X143460000Y-78920000D03*
X137110000Y-81460000D03*
%TD*%
D16*
%TO.C,SW4*%
X146000000Y-65000000D03*
X135840000Y-65000000D03*
D17*
X140920000Y-65000000D03*
D18*
X143460000Y-59920000D03*
X137110000Y-62460000D03*
%TD*%
D16*
%TO.C,SW3*%
X127000000Y-103000000D03*
X116840000Y-103000000D03*
D17*
X121920000Y-103000000D03*
D18*
X124460000Y-97920000D03*
X118110000Y-100460000D03*
%TD*%
D16*
%TO.C,SW2*%
X127000000Y-84000000D03*
X116840000Y-84000000D03*
D17*
X121920000Y-84000000D03*
D18*
X124460000Y-78920000D03*
X118110000Y-81460000D03*
%TD*%
D16*
%TO.C,SW1*%
X127080000Y-65000000D03*
X116920000Y-65000000D03*
D17*
X122000000Y-65000000D03*
D18*
X124540000Y-59920000D03*
X118190000Y-62460000D03*
%TD*%
D19*
%TO.C,D7*%
X168500000Y-67120000D03*
D10*
X168500000Y-59500000D03*
%TD*%
D19*
%TO.C,D4*%
X149500000Y-67310000D03*
D10*
X149500000Y-59690000D03*
%TD*%
D19*
%TO.C,D1*%
X130500000Y-67310000D03*
D10*
X130500000Y-59690000D03*
%TD*%
%TO.C,D2*%
X130500000Y-79000000D03*
D19*
X130500000Y-86620000D03*
%TD*%
D10*
%TO.C,D5*%
X149500000Y-79000000D03*
D19*
X149500000Y-86620000D03*
%TD*%
D10*
%TO.C,D9*%
X168500000Y-98000000D03*
D19*
X168500000Y-105620000D03*
%TD*%
D10*
%TO.C,D3*%
X130500000Y-98000000D03*
D19*
X130500000Y-105620000D03*
%TD*%
D10*
%TO.C,D6*%
X149500000Y-98000000D03*
D19*
X149500000Y-105620000D03*
%TD*%
D10*
%TO.C,D8*%
X168500000Y-79000000D03*
D19*
X168500000Y-86620000D03*
%TD*%
M02*
